<svg width="10" height="13" viewBox="0 0 10 13" fill="none" xmlns="http://www.w3.org/2000/svg">
<path d="M9.32277 5.3561H2.81157C2.80505 5.34512 2.80096 5.33383 2.79378 5.32292L2.34124 4.63923C1.66357 3.61519 1.9922 2.26049 3.07434 1.61844C3.59841 1.30789 4.21951 1.20787 4.82244 1.3396C5.42512 1.47008 5.93807 1.81559 6.26629 2.31105C6.26629 2.31147 6.26714 2.31168 6.26714 2.31185L7.07377 3.5297C7.20228 3.72357 7.42284 3.83011 7.64819 3.83011C7.7714 3.83011 7.89612 3.7986 8.00762 3.73215C8.32479 3.5442 8.42056 3.1484 8.22218 2.8482L7.41529 1.63036C7.41444 1.62952 7.414 1.62868 7.41308 1.62764C6.8924 0.843088 6.08025 0.29646 5.12522 0.0889961C4.16938 -0.11798 3.18558 0.0386722 2.35424 0.5317C0.638884 1.54853 0.117647 3.69677 1.19261 5.31989C1.19261 5.31989 1.19261 5.31989 1.19261 5.3201L1.2164 5.35589H0.677597C0.303033 5.35589 0 5.64302 0 5.997V12.359C0 12.713 0.303033 13 0.677597 13H9.32229C9.69608 13 10 12.7131 10 12.359V5.99721C10.0005 5.64302 9.69656 5.3561 9.32277 5.3561Z" fill="#7BF5FB"/>
</svg>
