<svg width="71" height="127" viewBox="0 0 71 127" fill="none" xmlns="http://www.w3.org/2000/svg">
<path d="M34.1667 86.6667C31.5001 86.6667 29.2512 85.7222 27.4201 83.8333C25.5845 81.9444 24.7779 79.7222 25.0001 77.1667C25.3334 72.5 26.4445 68.4444 28.3334 65C30.2223 61.5556 33.2223 58 37.3334 54.3333C41.889 50.3333 45.3601 46.86 47.7467 43.9133C50.1379 40.9711 51.3334 37.6111 51.3334 33.8333C51.3334 29.2778 49.8067 25.5 46.7534 22.5C43.6956 19.5 39.4445 18 34.0001 18C30.4445 18 27.4179 18.7489 24.9201 20.2467C22.4179 21.7489 20.389 23.6111 18.8334 25.8333C17.2779 28.0556 15.3623 29.5556 13.0867 30.3333C10.8067 31.1111 8.61119 31.0556 6.50008 30.1667C3.94452 29.0556 2.19563 27.2222 1.25341 24.6667C0.306741 22.1111 0.500077 19.7222 1.83341 17.5C5.05563 12.5 9.38896 8.33333 14.8334 5C20.2779 1.66667 26.6667 0 34.0001 0C45.6667 0 54.6401 3.25111 60.9201 9.75333C67.1956 16.2511 70.3334 24.0556 70.3334 33.1667C70.3334 38.7222 69.1401 43.4733 66.7534 47.42C64.3623 51.3622 60.6112 55.8333 55.5001 60.8333C51.7223 64.3889 49.0556 67.2778 47.5001 69.5C45.9445 71.7222 44.889 74.2778 44.3334 77.1667C43.889 79.9444 42.7223 82.2222 40.8334 84C38.9445 85.7778 36.7223 86.6667 34.1667 86.6667ZM34.0001 126.667C30.3334 126.667 27.1956 125.362 24.5867 122.753C21.9734 120.14 20.6667 117 20.6667 113.333C20.6667 109.667 21.9734 106.527 24.5867 103.913C27.1956 101.304 30.3334 100 34.0001 100C37.6667 100 40.8067 101.304 43.4201 103.913C46.029 106.527 47.3334 109.667 47.3334 113.333C47.3334 117 46.029 120.14 43.4201 122.753C40.8067 125.362 37.6667 126.667 34.0001 126.667Z" fill="white"/>
</svg>
