<svg width="39" height="39" viewBox="0 0 39 39" fill="none" xmlns="http://www.w3.org/2000/svg">
<path d="M19.5 3.25C10.5625 3.25 3.25 10.5625 3.25 19.5C3.25 28.4375 10.5625 35.75 19.5 35.75C28.4375 35.75 35.75 28.4375 35.75 19.5C35.75 10.5625 28.4375 3.25 19.5 3.25ZM25.5125 23.2375C26.1625 23.8875 26.1625 24.8625 25.5125 25.5125C24.8625 26.1625 23.8875 26.1625 23.2375 25.5125L19.5 21.775L15.7625 25.5125C15.1125 26.1625 14.1375 26.1625 13.4875 25.5125C12.8375 24.8625 12.8375 23.8875 13.4875 23.2375L17.225 19.5L13.4875 15.7625C12.8375 15.1125 12.8375 14.1375 13.4875 13.4875C14.1375 12.8375 15.1125 12.8375 15.7625 13.4875L19.5 17.225L23.2375 13.4875C23.8875 12.8375 24.8625 12.8375 25.5125 13.4875C26.1625 14.1375 26.1625 15.1125 25.5125 15.7625L21.775 19.5L25.5125 23.2375Z" fill="white"/>
</svg>
