<svg xmlns="http://www.w3.org/2000/svg" viewBox="0 0 222.31 222.31"><title>Tether logo</title><circle cx="111.16" cy="111.16" r="111.16" style="fill:#26a17b"/><path d="M523.85,522.26v0c-.77.05-4.74.29-13.56.29-7.06,0-12-.2-13.76-.29v0c-27.15-1.2-47.39-5.92-47.39-11.58s20.27-10.38,47.39-11.58v18.46c1.77.13,6.86.43,13.89.43,8.43,0,12.65-.36,13.44-.43V499.12c27.09,1.22,47.29,5.93,47.29,11.58s-20.21,10.36-47.29,11.58m0-25.07V480.69h37.8V455.51H458.75v25.18h37.8V497.2c-30.72,1.41-53.81,7.49-53.81,14.78s23.11,13.37,53.81,14.8v52.93h27.32V526.78c30.67-1.41,53.72-7.49,53.72-14.78s-23.05-13.37-53.72-14.78" transform="translate(-400.84 -400.84)" style="fill:#fff"/></svg>